<svg width="85" height="78" viewBox="0 0 85 78" fill="none" xmlns="http://www.w3.org/2000/svg">
<path d="M16.475 44H16.325C16.065 44 15.815 43.975 15.575 43.925C15.335 43.875 15.12 43.785 14.93 43.655C14.75 43.525 14.6 43.345 14.48 43.115C14.37 42.885 14.315 42.585 14.315 42.215V33.11H14.555C14.795 33.11 15.03 33.14 15.26 33.2C15.49 33.25 15.695 33.345 15.875 33.485C16.055 33.615 16.2 33.795 16.31 34.025C16.42 34.255 16.475 34.55 16.475 34.91V44ZM11.075 34.595C11.075 34.425 11.105 34.255 11.165 34.085C11.225 33.915 11.32 33.76 11.45 33.62C11.58 33.48 11.74 33.37 11.93 33.29C12.12 33.2 12.345 33.155 12.605 33.155C12.875 33.155 13.105 33.205 13.295 33.305C13.485 33.395 13.635 33.51 13.745 33.65C13.865 33.78 13.95 33.925 14 34.085C14.06 34.235 14.09 34.37 14.09 34.49C14.09 34.57 14.085 34.645 14.075 34.715C14.075 34.775 14.06 34.845 14.03 34.925C13.89 34.805 13.73 34.745 13.55 34.745C13.4 34.745 13.275 34.795 13.175 34.895C13.075 34.985 13.025 35.125 13.025 35.315V36.05C12.945 36.07 12.845 36.08 12.725 36.08C12.585 36.08 12.42 36.065 12.23 36.035C12.04 35.995 11.86 35.92 11.69 35.81C11.52 35.7 11.375 35.55 11.255 35.36C11.135 35.17 11.075 34.915 11.075 34.595ZM19.73 34.595C19.73 34.915 19.67 35.17 19.55 35.36C19.43 35.55 19.285 35.7 19.115 35.81C18.945 35.92 18.765 35.995 18.575 36.035C18.385 36.065 18.22 36.08 18.08 36.08C17.96 36.08 17.86 36.07 17.78 36.05V35.36C17.78 35.15 17.73 34.995 17.63 34.895C17.53 34.795 17.405 34.745 17.255 34.745C17.065 34.745 16.905 34.805 16.775 34.925C16.745 34.845 16.725 34.775 16.715 34.715C16.715 34.645 16.715 34.57 16.715 34.49C16.715 34.37 16.74 34.235 16.79 34.085C16.85 33.925 16.935 33.78 17.045 33.65C17.165 33.51 17.315 33.395 17.495 33.305C17.685 33.205 17.91 33.155 18.17 33.155C18.44 33.155 18.67 33.2 18.86 33.29C19.06 33.38 19.22 33.495 19.34 33.635C19.47 33.765 19.565 33.92 19.625 34.1C19.695 34.27 19.73 34.435 19.73 34.595ZM22.4887 41.66C22.4887 41.78 22.4937 41.895 22.5037 42.005C22.5237 42.115 22.5537 42.215 22.5937 42.305C22.6437 42.385 22.7087 42.455 22.7887 42.515C22.8787 42.565 22.9987 42.59 23.1487 42.59C23.2287 42.59 23.3087 42.58 23.3887 42.56C23.4787 42.53 23.5587 42.485 23.6287 42.425C23.6687 42.505 23.6937 42.585 23.7037 42.665C23.7137 42.735 23.7187 42.81 23.7187 42.89C23.7187 43.21 23.5837 43.475 23.3137 43.685C23.0437 43.895 22.7187 44 22.3387 44C21.7387 44 21.2787 43.84 20.9587 43.52C20.6387 43.2 20.4787 42.8 20.4787 42.32V38.15C20.4787 37.82 20.5387 37.545 20.6587 37.325C20.7887 37.095 20.9487 36.91 21.1387 36.77C21.3387 36.63 21.5537 36.53 21.7837 36.47C22.0237 36.41 22.2587 36.38 22.4887 36.38V41.66ZM25.9087 42.23C25.9087 42.58 25.8437 42.87 25.7137 43.1C25.5937 43.32 25.4337 43.5 25.2337 43.64C25.0437 43.77 24.8287 43.865 24.5887 43.925C24.3487 43.975 24.1187 44 23.8987 44V38.72C23.8987 38.6 23.8887 38.485 23.8687 38.375C23.8587 38.265 23.8287 38.17 23.7787 38.09C23.7387 38 23.6737 37.93 23.5837 37.88C23.5037 37.82 23.3887 37.79 23.2387 37.79C23.1587 37.79 23.0737 37.805 22.9837 37.835C22.9037 37.855 22.8287 37.895 22.7587 37.955C22.7187 37.875 22.6937 37.8 22.6837 37.73C22.6737 37.65 22.6687 37.57 22.6687 37.49C22.6687 37.17 22.8037 36.905 23.0737 36.695C23.3437 36.485 23.6687 36.38 24.0487 36.38C24.6487 36.38 25.1087 36.535 25.4287 36.845C25.7487 37.145 25.9087 37.58 25.9087 38.15V42.23ZM30.6809 36.38C30.9009 36.38 31.1309 36.41 31.3709 36.47C31.6109 36.53 31.8259 36.63 32.0159 36.77C32.2159 36.91 32.3759 37.095 32.4959 37.325C32.6259 37.545 32.6909 37.82 32.6909 38.15V42.17C32.6909 42.74 32.5409 43.19 32.2409 43.52C31.9409 43.84 31.5059 44 30.9359 44C30.7459 44 30.5609 43.975 30.3809 43.925C30.2109 43.865 30.0559 43.79 29.9159 43.7C29.7859 43.6 29.6809 43.485 29.6009 43.355C29.5209 43.215 29.4809 43.065 29.4809 42.905C29.4809 42.845 29.4809 42.77 29.4809 42.68C29.4909 42.59 29.5109 42.505 29.5409 42.425C29.6809 42.555 29.8659 42.62 30.0959 42.62C30.3559 42.62 30.5159 42.525 30.5759 42.335C30.6459 42.135 30.6809 41.91 30.6809 41.66V36.38ZM27.2609 38.15C27.2609 37.58 27.4209 37.14 27.7409 36.83C28.0609 36.52 28.5209 36.365 29.1209 36.365C29.5109 36.365 29.8309 36.475 30.0809 36.695C30.3309 36.915 30.4559 37.175 30.4559 37.475C30.4559 37.565 30.4509 37.655 30.4409 37.745C30.4409 37.825 30.4209 37.905 30.3809 37.985C30.2409 37.855 30.0909 37.79 29.9309 37.79C29.7809 37.79 29.6609 37.82 29.5709 37.88C29.4909 37.93 29.4259 38 29.3759 38.09C29.3359 38.17 29.3059 38.265 29.2859 38.375C29.2759 38.485 29.2709 38.6 29.2709 38.72V47.735C29.0409 47.735 28.8059 47.705 28.5659 47.645C28.3359 47.595 28.1209 47.5 27.9209 47.36C27.7309 47.23 27.5709 47.05 27.4409 46.82C27.3209 46.6 27.2609 46.315 27.2609 45.965V38.15ZM39.2232 39.2H39.0432C38.8132 39.2 38.5832 39.175 38.3532 39.125C38.1232 39.075 37.9082 38.985 37.7082 38.855C37.5182 38.715 37.3632 38.53 37.2432 38.3C37.1232 38.06 37.0632 37.76 37.0632 37.4V34.91C37.0632 34.55 37.1232 34.255 37.2432 34.025C37.3632 33.785 37.5182 33.6 37.7082 33.47C37.9082 33.33 38.1232 33.235 38.3532 33.185C38.5832 33.135 38.8132 33.11 39.0432 33.11H39.2232V39.2ZM36.9582 42.56C36.9582 42.25 37.0182 42 37.1382 41.81C37.2582 41.61 37.4032 41.455 37.5732 41.345C37.7432 41.235 37.9232 41.165 38.1132 41.135C38.3032 41.095 38.4682 41.075 38.6082 41.075C38.7282 41.075 38.8282 41.085 38.9082 41.105V41.855C38.9082 42.225 39.0532 42.41 39.3432 42.41C39.4332 42.41 39.5082 42.395 39.5682 42.365C39.6282 42.335 39.6932 42.29 39.7632 42.23C39.7932 42.31 39.8082 42.41 39.8082 42.53C39.8182 42.65 39.8232 42.745 39.8232 42.815C39.8232 42.935 39.8032 43.065 39.7632 43.205C39.7232 43.345 39.6532 43.475 39.5532 43.595C39.4632 43.705 39.3332 43.8 39.1632 43.88C38.9932 43.96 38.7782 44 38.5182 44C38.2482 44 38.0132 43.955 37.8132 43.865C37.6232 43.775 37.4632 43.665 37.3332 43.535C37.2132 43.395 37.1182 43.24 37.0482 43.07C36.9882 42.9 36.9582 42.73 36.9582 42.56ZM40.0632 37.925H40.2432C40.4632 37.925 40.6882 37.95 40.9182 38C41.1582 38.05 41.3732 38.145 41.5632 38.285C41.7632 38.415 41.9232 38.6 42.0432 38.84C42.1632 39.07 42.2232 39.365 42.2232 39.725V42.215C42.2232 42.575 42.1632 42.875 42.0432 43.115C41.9232 43.345 41.7632 43.53 41.5632 43.67C41.3732 43.8 41.1582 43.89 40.9182 43.94C40.6882 43.99 40.4632 44.015 40.2432 44.015H40.0632V37.925ZM42.2982 34.55C42.2982 34.87 42.2382 35.125 42.1182 35.315C41.9982 35.505 41.8532 35.655 41.6832 35.765C41.5132 35.875 41.3332 35.95 41.1432 35.99C40.9532 36.02 40.7882 36.035 40.6482 36.035C40.5282 36.035 40.4282 36.025 40.3482 36.005V35.255C40.3482 34.885 40.2032 34.7 39.9132 34.7C39.8232 34.7 39.7482 34.715 39.6882 34.745C39.6282 34.775 39.5632 34.82 39.4932 34.88C39.4632 34.8 39.4432 34.7 39.4332 34.58C39.4332 34.46 39.4332 34.365 39.4332 34.295C39.4332 34.175 39.4532 34.045 39.4932 33.905C39.5332 33.765 39.5982 33.64 39.6882 33.53C39.7882 33.41 39.9232 33.31 40.0932 33.23C40.2632 33.15 40.4782 33.11 40.7382 33.11C41.0082 33.11 41.2382 33.155 41.4282 33.245C41.6282 33.335 41.7882 33.45 41.9082 33.59C42.0382 33.72 42.1332 33.875 42.1932 34.055C42.2632 34.225 42.2982 34.39 42.2982 34.55ZM45.6625 44H45.5125C45.2825 44 45.0575 43.975 44.8375 43.925C44.6175 43.865 44.4175 43.77 44.2375 43.64C44.0675 43.5 43.9275 43.32 43.8175 43.1C43.7075 42.88 43.6525 42.61 43.6525 42.29V38.255C43.6525 37.705 43.7825 37.255 44.0425 36.905C44.3125 36.555 44.7475 36.38 45.3475 36.38C45.7475 36.38 46.0775 36.485 46.3375 36.695C46.5975 36.895 46.7275 37.22 46.7275 37.67C46.7275 37.82 46.7075 37.93 46.6675 38C46.5275 37.88 46.3775 37.82 46.2175 37.82C45.9975 37.82 45.8475 37.895 45.7675 38.045C45.6975 38.195 45.6625 38.355 45.6625 38.525V44ZM46.9975 36.395C47.0475 36.385 47.0975 36.38 47.1475 36.38H47.2975C47.8375 36.38 48.2575 36.52 48.5575 36.8C48.8575 37.07 49.0075 37.46 49.0075 37.97V38.795C49.0075 39.475 48.8375 39.98 48.4975 40.31C48.1575 40.64 47.7425 40.805 47.2525 40.805H47.1475C46.7675 40.785 46.4575 40.66 46.2175 40.43C45.9875 40.19 45.8725 39.905 45.8725 39.575C45.8725 39.525 45.8725 39.48 45.8725 39.44C45.8825 39.4 45.9025 39.34 45.9325 39.26C46.0125 39.34 46.0825 39.4 46.1425 39.44C46.2025 39.48 46.3025 39.5 46.4425 39.5C46.6725 39.5 46.8225 39.42 46.8925 39.26C46.9625 39.09 46.9975 38.895 46.9975 38.675V36.395ZM48.9475 42.545C48.9475 42.825 48.8975 43.06 48.7975 43.25C48.7075 43.43 48.5875 43.58 48.4375 43.7C48.2875 43.81 48.1225 43.89 47.9425 43.94C47.7625 43.98 47.5875 44 47.4175 44C46.9075 44 46.5475 43.875 46.3375 43.625C46.1275 43.375 46.0225 43.095 46.0225 42.785C46.0225 42.735 46.0225 42.675 46.0225 42.605C46.0325 42.535 46.0575 42.46 46.0975 42.38C46.2275 42.5 46.3775 42.56 46.5475 42.56C46.7875 42.54 46.9275 42.46 46.9675 42.32C47.0075 42.18 47.0275 42.005 47.0275 41.795V41.24C47.1775 41.2 47.3575 41.18 47.5675 41.18C47.8275 41.18 48.0425 41.22 48.2125 41.3C48.3925 41.38 48.5375 41.485 48.6475 41.615C48.7575 41.745 48.8325 41.895 48.8725 42.065C48.9225 42.225 48.9475 42.385 48.9475 42.545ZM52.2983 44H52.1633C51.9333 44 51.7033 43.975 51.4733 43.925C51.2533 43.865 51.0533 43.77 50.8733 43.64C50.7033 43.5 50.5633 43.32 50.4533 43.1C50.3433 42.88 50.2883 42.61 50.2883 42.29V38.15C50.2883 37.79 50.3483 37.495 50.4683 37.265C50.5883 37.035 50.7433 36.855 50.9333 36.725C51.1233 36.595 51.3383 36.505 51.5783 36.455C51.8183 36.405 52.0583 36.38 52.2983 36.38V44ZM55.6133 37.865C55.6133 38.015 55.5883 38.17 55.5383 38.33C55.4983 38.49 55.4233 38.635 55.3133 38.765C55.2033 38.895 55.0583 39 54.8783 39.08C54.7083 39.16 54.4933 39.2 54.2333 39.2C54.0233 39.2 53.8433 39.18 53.6933 39.14V38.63C53.6933 38.41 53.6533 38.225 53.5733 38.075C53.4933 37.925 53.3383 37.84 53.1083 37.82C52.9983 37.82 52.9033 37.84 52.8233 37.88C52.7533 37.91 52.6833 37.95 52.6133 38C52.5433 37.86 52.5083 37.7 52.5083 37.52C52.5083 37.22 52.6383 36.955 52.8983 36.725C53.1583 36.495 53.5183 36.38 53.9783 36.38H54.0833C54.2533 36.39 54.4283 36.425 54.6083 36.485C54.7883 36.545 54.9533 36.635 55.1033 36.755C55.2533 36.875 55.3733 37.03 55.4633 37.22C55.5633 37.4 55.6133 37.615 55.6133 37.865ZM55.6133 42.545C55.6133 42.785 55.5633 42.995 55.4633 43.175C55.3733 43.355 55.2533 43.505 55.1033 43.625C54.9533 43.745 54.7883 43.835 54.6083 43.895C54.4283 43.955 54.2533 43.99 54.0833 44H53.9783C53.5183 44 53.1583 43.885 52.8983 43.655C52.6383 43.425 52.5083 43.16 52.5083 42.86C52.5083 42.68 52.5433 42.52 52.6133 42.38C52.7433 42.5 52.8933 42.56 53.0633 42.56C53.3133 42.54 53.4783 42.455 53.5583 42.305C53.6483 42.155 53.6933 41.97 53.6933 41.75V41.24C53.8433 41.2 54.0233 41.18 54.2333 41.18C54.4933 41.18 54.7083 41.22 54.8783 41.3C55.0583 41.38 55.2033 41.485 55.3133 41.615C55.4233 41.745 55.4983 41.895 55.5383 42.065C55.5883 42.225 55.6133 42.385 55.6133 42.545ZM56.8215 36.38H56.9865C57.5065 36.38 57.9415 36.52 58.2915 36.8C58.6515 37.08 58.8315 37.525 58.8315 38.135V44H58.7415C58.5115 44 58.2815 43.97 58.0515 43.91C57.8315 43.85 57.6265 43.755 57.4365 43.625C57.2565 43.485 57.1065 43.31 56.9865 43.1C56.8765 42.88 56.8215 42.61 56.8215 42.29V36.38ZM61.7865 37.7C61.7865 37.98 61.7315 38.205 61.6215 38.375C61.5115 38.545 61.3765 38.68 61.2165 38.78C61.0665 38.87 60.9015 38.93 60.7215 38.96C60.5415 38.99 60.3865 39.005 60.2565 39.005C60.1165 39.005 59.9965 38.995 59.8965 38.975V38.435C59.8965 38.205 59.8565 38.06 59.7765 38C59.7065 37.94 59.6165 37.91 59.5065 37.91C59.4065 37.91 59.3265 37.93 59.2665 37.97C59.2165 38.01 59.1565 38.07 59.0865 38.15C59.0565 38.07 59.0365 37.99 59.0265 37.91C59.0265 37.82 59.0265 37.735 59.0265 37.655C59.0265 37.525 59.0465 37.385 59.0865 37.235C59.1365 37.085 59.2115 36.95 59.3115 36.83C59.4215 36.7 59.5615 36.595 59.7315 36.515C59.9015 36.425 60.1165 36.38 60.3765 36.38C60.8565 36.38 61.2115 36.51 61.4415 36.77C61.6715 37.02 61.7865 37.33 61.7865 37.7ZM64.559 44H64.409C64.179 44 63.954 43.975 63.734 43.925C63.514 43.865 63.314 43.77 63.134 43.64C62.964 43.5 62.824 43.32 62.714 43.1C62.604 42.88 62.549 42.61 62.549 42.29V38.255C62.549 37.705 62.679 37.255 62.939 36.905C63.209 36.555 63.644 36.38 64.244 36.38C64.644 36.38 64.974 36.485 65.234 36.695C65.494 36.895 65.624 37.22 65.624 37.67C65.624 37.82 65.604 37.93 65.564 38C65.424 37.88 65.274 37.82 65.114 37.82C64.894 37.82 64.744 37.895 64.664 38.045C64.594 38.195 64.559 38.355 64.559 38.525V44ZM65.894 36.395C65.944 36.385 65.994 36.38 66.044 36.38H66.194C66.734 36.38 67.154 36.52 67.454 36.8C67.754 37.07 67.904 37.46 67.904 37.97V38.795C67.904 39.475 67.734 39.98 67.394 40.31C67.054 40.64 66.639 40.805 66.149 40.805H66.044C65.664 40.785 65.354 40.66 65.114 40.43C64.884 40.19 64.769 39.905 64.769 39.575C64.769 39.525 64.769 39.48 64.769 39.44C64.779 39.4 64.799 39.34 64.829 39.26C64.909 39.34 64.979 39.4 65.039 39.44C65.099 39.48 65.199 39.5 65.339 39.5C65.569 39.5 65.719 39.42 65.789 39.26C65.859 39.09 65.894 38.895 65.894 38.675V36.395ZM67.844 42.545C67.844 42.825 67.794 43.06 67.694 43.25C67.604 43.43 67.484 43.58 67.334 43.7C67.184 43.81 67.019 43.89 66.839 43.94C66.659 43.98 66.484 44 66.314 44C65.804 44 65.444 43.875 65.234 43.625C65.024 43.375 64.919 43.095 64.919 42.785C64.919 42.735 64.919 42.675 64.919 42.605C64.929 42.535 64.954 42.46 64.994 42.38C65.124 42.5 65.274 42.56 65.444 42.56C65.684 42.54 65.824 42.46 65.864 42.32C65.904 42.18 65.924 42.005 65.924 41.795V41.24C66.074 41.2 66.254 41.18 66.464 41.18C66.724 41.18 66.939 41.22 67.109 41.3C67.289 41.38 67.434 41.485 67.544 41.615C67.654 41.745 67.729 41.895 67.769 42.065C67.819 42.225 67.844 42.385 67.844 42.545ZM71.1948 41.705C71.1948 41.805 71.1948 41.91 71.1948 42.02C71.2048 42.13 71.2248 42.23 71.2548 42.32C71.2948 42.41 71.3498 42.485 71.4198 42.545C71.4898 42.605 71.5898 42.635 71.7198 42.635C71.8798 42.635 71.9998 42.595 72.0798 42.515C72.1698 42.425 72.2348 42.35 72.2748 42.29C72.2948 42.35 72.3098 42.44 72.3198 42.56C72.3398 42.68 72.3498 42.78 72.3498 42.86C72.3498 43.24 72.2198 43.525 71.9598 43.715C71.7098 43.905 71.3748 44 70.9548 44C70.4048 44 69.9698 43.83 69.6498 43.49C69.3398 43.15 69.1848 42.59 69.1848 41.81V34.925C69.1848 34.675 69.2148 34.44 69.2748 34.22C69.3448 34 69.4498 33.81 69.5898 33.65C69.7298 33.48 69.9098 33.35 70.1298 33.26C70.3598 33.16 70.6348 33.11 70.9548 33.11C70.9948 33.11 71.0348 33.115 71.0748 33.125C71.1148 33.125 71.1548 33.125 71.1948 33.125V41.705ZM71.4498 36.455H71.4798C71.4998 36.455 71.5448 36.455 71.6148 36.455C71.6848 36.445 71.7948 36.44 71.9448 36.44H72.6198C72.6298 36.47 72.6348 36.545 72.6348 36.665C72.6348 37.045 72.5448 37.345 72.3648 37.565C72.1848 37.775 71.8798 37.88 71.4498 37.88V36.455Z" fill="#870D0D"/>
<path d="M71 54.5C71 60.6202 68.0535 66.499 62.7873 70.886C57.521 75.273 50.3505 77.822 42.8008 77.991C35.251 78.16 27.9178 75.9356 22.3607 71.7909C16.8036 67.6462 13.4612 61.9082 13.0442 55.7973L14.5551 55.7296C14.9502 61.5216 18.1183 66.9603 23.3854 70.8887C28.6526 74.8172 35.6032 76.9255 42.759 76.7653C49.9148 76.6052 56.7112 74.1891 61.7027 70.031C66.6941 65.8729 69.4868 60.3009 69.4868 54.5H71Z" fill="#870D0D"/>
<path d="M13.0399 24.1636C13.4284 17.6531 16.6381 11.5207 22.0093 7.02668C27.3805 2.53261 34.5053 0.0181841 41.9195 9.36709e-05C49.3338 -0.0179968 56.4743 2.46162 61.8738 6.92941C67.2733 11.3972 70.5216 17.5138 70.9513 24.0223L69.7419 24.084C69.3302 17.8474 66.2176 11.9863 61.0436 7.70515C55.8697 3.42399 49.0274 1.04795 41.9229 1.06529C34.8184 1.08262 27.9912 3.49202 22.8444 7.79836C17.6975 12.1047 14.6219 17.9809 14.2496 24.2194L13.0399 24.1636Z" fill="#870D0D"/>
<path d="M15.0827 24.6454C15.6015 18.8336 18.5379 13.4003 23.3215 9.40096C28.105 5.40167 34.3942 3.12197 40.9672 3.00475C47.5401 2.88752 53.9275 4.94113 58.8886 8.76663C63.8496 12.5921 67.03 17.9164 67.8119 23.705L65.0787 23.9953C64.378 18.808 61.528 14.0368 57.0823 10.6087C52.6366 7.18057 46.9127 5.34028 41.0225 5.44533C35.1323 5.55038 29.4965 7.59327 25.2098 11.1771C20.9231 14.761 18.2917 19.6299 17.8268 24.8381L15.0827 24.6454Z" fill="#870D0D"/>
<path d="M67.714 55.3699C66.7778 60.8562 63.5889 65.864 58.735 69.4711C53.881 73.0781 47.6887 75.0414 41.2988 74.9993C34.909 74.9572 28.7518 72.9126 23.9614 69.242C19.1711 65.5714 16.0703 60.5221 15.2301 55.0241L17.9589 54.71C18.7118 59.6369 21.4905 64.1617 25.7833 67.451C30.076 70.7403 35.5936 72.5725 41.3197 72.6103C47.0459 72.648 52.5949 70.8886 56.9447 67.6563C61.2944 64.4239 64.152 59.9362 64.991 55.0199L67.714 55.3699Z" fill="#870D0D"/>
<rect x="3.5" y="27.5" width="77" height="24" rx="1.5" stroke="#870D0D"/>
<rect x="1" y="24" width="83" height="31" rx="1" stroke="#870D0D" stroke-width="2"/>
<path d="M41.5 8L42.5103 10.7639H45.7798L43.1347 12.4721L44.145 15.2361L41.5 13.5279L38.855 15.2361L39.8653 12.4721L37.2202 10.7639H40.4897L41.5 8Z" fill="#870D0D"/>
<path d="M26.5 13L27.2858 15.4184H29.8287L27.7714 16.9131L28.5572 19.3316L26.5 17.8369L24.4428 19.3316L25.2286 16.9131L23.1713 15.4184H25.7142L26.5 13Z" fill="#870D0D"/>
<path d="M55 13L55.8981 15.4184H58.8042L56.4531 16.9131L57.3511 19.3316L55 17.8369L52.6489 19.3316L53.5469 16.9131L51.1958 15.4184H54.1019L55 13Z" fill="#870D0D"/>
<path d="M41.5 64L42.5103 66.7639H45.7798L43.1347 68.4721L44.145 71.2361L41.5 69.5279L38.855 71.2361L39.8653 68.4721L37.2202 66.7639H40.4897L41.5 64Z" fill="#870D0D"/>
<path d="M26.5 59L27.2858 61.4184H29.8287L27.7714 62.9131L28.5572 65.3316L26.5 63.8369L24.4428 65.3316L25.2286 62.9131L23.1713 61.4184H25.7142L26.5 59Z" fill="#870D0D"/>
<path d="M56 59L56.8981 61.4184H59.8042L57.4531 62.9131L58.3511 65.3316L56 63.8369L53.6489 65.3316L54.5469 62.9131L52.1958 61.4184H55.1019L56 59Z" fill="#870D0D"/>
<rect x="6" y="30" width="32" height="1" fill="#870D0D"/>
<rect x="45" y="30" width="32" height="1" fill="#870D0D"/>
<circle cx="41.5" cy="30.5" r="1.5" fill="#870D0D"/>
<rect x="6" y="48" width="32" height="1" fill="#870D0D"/>
<rect x="45" y="48" width="32" height="1" fill="#870D0D"/>
<circle cx="41.5" cy="48.5" r="1.5" fill="#870D0D"/>
</svg>
